<?xml version="1.0" encoding="UTF-8" standalone="no"?>
<!-- Created with Inkscape (http://www.inkscape.org/) -->

<svg
   width="500.92224"
   height="310.49927"
   viewBox="0 0 132.53566 82.152941"
   version="1.1"
   id="svg8"
   inkscape:version="1.4 (86a8ad7, 2024-10-11)"
   sodipodi:docname="Bancontact Old.svg"
   xmlns:inkscape="http://www.inkscape.org/namespaces/inkscape"
   xmlns:sodipodi="http://sodipodi.sourceforge.net/DTD/sodipodi-0.dtd"
   xmlns="http://www.w3.org/2000/svg"
   xmlns:svg="http://www.w3.org/2000/svg"
   xmlns:rdf="http://www.w3.org/1999/02/22-rdf-syntax-ns#"
   xmlns:cc="http://creativecommons.org/ns#"
   xmlns:dc="http://purl.org/dc/elements/1.1/">
  <defs
     id="defs2">
    <clipPath
       clipPathUnits="userSpaceOnUse"
       id="clipPath81">
      <path
         d="M 0,0 H 595.276 V 841.89 H 0 Z"
         id="path79"
         inkscape:connector-curvature="0" />
    </clipPath>
    <clipPath
       clipPathUnits="userSpaceOnUse"
       id="clipPath1109">
      <path
         d="M 255.65399,137.90701 V 117.882 h 63.594 v 20.02501 h -63.594"
         id="path1107"
         inkscape:connector-curvature="0" />
    </clipPath>
    <clipPath
       clipPathUnits="userSpaceOnUse"
       id="clipPath1117">
      <path
         d="m 257.57019,136.73035 h 59.94449 v -17.45836 h -59.94449 v 17.45836"
         id="path1115"
         inkscape:connector-curvature="0" />
    </clipPath>
    <clipPath
       clipPathUnits="userSpaceOnUse"
       id="clipPath1125">
      <path
         d="m 257.57019,119.27199 h 59.94449 v 17.45836 h -59.94449 z"
         id="path1123"
         inkscape:connector-curvature="0" />
    </clipPath>
    <clipPath
       clipPathUnits="userSpaceOnUse"
       id="clipPath6258">
      <path
         d="M 0,0 H 792 V 612 H 0 Z"
         id="path6256"
         inkscape:connector-curvature="0" />
    </clipPath>
    <clipPath
       clipPathUnits="userSpaceOnUse"
       id="clipPath6214">
      <path
         d="M 0,0 H 792 V 612 H 0 Z"
         id="path6212"
         inkscape:connector-curvature="0" />
    </clipPath>
    <clipPath
       clipPathUnits="userSpaceOnUse"
       id="clipPath6182">
      <path
         d="M 0,0 H 792 V 612 H 0 Z"
         id="path6180"
         inkscape:connector-curvature="0" />
    </clipPath>
    <clipPath
       clipPathUnits="userSpaceOnUse"
       id="clipPath6154">
      <path
         d="M 0,0 H 792 V 612 H 0 Z"
         id="path6152"
         inkscape:connector-curvature="0" />
    </clipPath>
  </defs>
  <sodipodi:namedview
     id="base"
     pagecolor="#ffffff"
     bordercolor="#666666"
     borderopacity="1.0"
     inkscape:pageopacity="0.82352941"
     inkscape:pageshadow="2"
     inkscape:zoom="0.24748737"
     inkscape:cx="319.2082"
     inkscape:cy="-228.29448"
     inkscape:document-units="px"
     inkscape:current-layer="layer1"
     showgrid="false"
     units="px"
     inkscape:window-width="1920"
     inkscape:window-height="1001"
     inkscape:window-x="-9"
     inkscape:window-y="-9"
     inkscape:window-maximized="1"
     inkscape:pagecheckerboard="true"
     fit-margin-top="0"
     fit-margin-left="0"
     fit-margin-right="0"
     fit-margin-bottom="0"
     inkscape:showpageshadow="2"
     inkscape:deskcolor="#d1d1d1">
    <inkscape:grid
       type="xygrid"
       id="grid3605"
       originx="99.176712"
       originy="-530.57001"
       spacingy="1"
       spacingx="1"
       units="px" />
  </sodipodi:namedview>
  <metadata
     id="metadata5">
    <rdf:RDF>
      <cc:Work
         rdf:about="">
        <dc:format>image/svg+xml</dc:format>
        <dc:type
           rdf:resource="http://purl.org/dc/dcmitype/StillImage" />
      </cc:Work>
    </rdf:RDF>
  </metadata>
  <g
     inkscape:label="Layer 1"
     inkscape:groupmode="layer"
     id="layer1"
     transform="translate(250.61873,742.76481)">
    <path
       d="m -132.52375,-728.43203 h -6.19595 -28.63723 -6.19647 l -4.17278,4.69823 -13.5409,15.24473 v 4.8e-4 l -4.17276,4.69771 h -6.197 -28.0934 -6.19702 l 4.10827,-4.75748 1.94452,-2.25185 4.10826,-4.75748 h -6.197 -7.98525 -4.47327 c -3.40814,0 -6.197,2.85964 -6.197,6.35433 v 4.9e-4 12.2713 1.13587 c 0,3.49523 2.78886,6.35488 6.197,6.35488 h 1.74108 65.01898 4.66152 c 3.40818,0 8.06392,-2.12387 10.34616,-4.71973 l 10.80347,-12.28809 z"
       id="Fill-4"
       inkscape:connector-curvature="0"
       style="fill:#005697;fill-rule:evenodd;stroke:none;stroke-width:0.524415" />
    <path
       d="m -124.28005,-742.76481 c 3.40815,0 6.19699,2.85963 6.19699,6.35485 v 13.40717 c 0,3.49471 -2.78884,6.35487 -6.19699,6.35487 h -3.36204 -9.03566 -6.19701 l 4.14709,-4.72184 h 4.9e-4 l 2.05622,-2.34099 4.14709,-4.72128 H -173.553 l -21.88645,24.65902 h -40.73858 l 29.21564,-33.03445 1.10546,-1.25021 c 2.29011,-2.58904 6.95218,-4.70714 10.36032,-4.70714 h 1.439 z"
       id="Fill-6"
       inkscape:connector-curvature="0"
       style="fill:#fbd500;fill-rule:evenodd;stroke:none;stroke-width:0.524415" />
    <path
       d="m -236.6528,-666.64868 c 0,-0.87524 -0.20661,-1.63303 -0.61878,-2.27283 -0.41271,-0.63977 -0.95549,-1.12802 -1.62885,-1.46469 0.67336,-0.33666 1.19516,-0.83381 1.56593,-1.49037 0.37021,-0.65656 0.55533,-1.39703 0.55533,-2.22194 v -0.45468 c 0,-1.01054 -0.19345,-1.8517 -0.58052,-2.52558 -0.38753,-0.67333 -0.93082,-1.21244 -1.62936,-1.61624 -0.69851,-0.40434 -1.53652,-0.69432 -2.51245,-0.87156 -0.97699,-0.17682 -2.06254,-0.26486 -3.25819,-0.26486 -0.40381,0 -0.82492,0.008 -1.26228,0.0251 -0.4384,0.0159 -0.86319,0.0376 -1.27539,0.0629 -0.41272,0.0251 -0.79186,0.0552 -1.13639,0.0886 -0.34559,0.0341 -0.62774,0.0677 -0.84642,0.10073 -0.4882,0.0851 -0.83328,0.23598 -1.0352,0.45465 -0.20187,0.21921 -0.3031,0.61515 -0.3031,1.18729 v 15.35485 c 0,0.57267 0.10486,0.96806 0.3157,1.18674 0.21029,0.21919 0.56795,0.37023 1.07349,0.45466 0.25222,0.0503 0.55534,0.0925 0.90879,0.12645 0.35348,0.0335 0.73627,0.0628 1.14899,0.088 0.41273,0.0251 0.8375,0.0462 1.2754,0.0635 0.43789,0.0159 0.86684,0.0251 1.28796,0.0251 1.09444,0 2.12544,-0.0844 3.09406,-0.25278 0.96752,-0.16787 1.80921,-0.46724 2.52503,-0.89675 0.71583,-0.42896 1.28378,-1.01 1.70489,-1.74209 0.42057,-0.7326 0.63136,-1.65453 0.63136,-2.76575 z m -4.29337,-7.24795 c 0,0.26957 -0.042,0.52651 -0.12645,0.77037 -0.0844,0.24387 -0.22289,0.45414 -0.41639,0.63193 -0.19403,0.17621 -0.45464,0.31937 -0.78293,0.42844 -0.32829,0.10962 -0.7452,0.16413 -1.25022,0.16413 h -2.82818 v -4.36893 c 0.084,0 0.21451,-0.003 0.39124,-0.0118 0.17678,-0.008 0.36184,-0.0119 0.55535,-0.0119 h 0.55587 0.41638 c 1.29635,0 2.20149,0.1641 2.7149,0.49242 0.5134,0.32829 0.77035,0.8375 0.77035,1.52763 z m 0.10134,7.52588 c 0,0.70692 -0.24857,1.25439 -0.74518,1.64142 -0.49662,0.38754 -1.39338,0.58157 -2.68974,0.58157 h -0.41638 c -0.19404,0 -0.39593,-0.003 -0.60623,-0.014 -0.2108,-0.008 -0.41272,-0.014 -0.60623,-0.014 h -0.44156 v -4.72236 h 2.82819 c 1.01002,0 1.70852,0.22341 2.09608,0.66917 0.38701,0.44626 0.58105,0.97226 0.58105,1.57848 z m 18.03144,-3.99027 c 0,-0.92559 -0.13892,-1.71327 -0.41689,-2.36144 -0.2774,-0.64766 -0.66915,-1.17835 -1.17416,-1.59108 -0.50501,-0.41219 -1.1238,-0.71475 -1.85643,-0.90881 -0.73209,-0.19345 -1.55279,-0.29051 -2.46212,-0.29051 -0.84221,0 -1.66291,0.0593 -2.46211,0.1772 -0.80026,0.11754 -1.43585,0.23547 -1.90678,0.35295 -0.31992,0.0851 -0.47984,0.26954 -0.47984,0.55535 v 2.04573 c 0,0.16887 0.0419,0.28686 0.12645,0.35347 0.0839,0.0676 0.19306,0.10164 0.32829,0.10164 h 0.12586 c 0.20241,-0.0178 0.45465,-0.0382 0.75779,-0.0635 0.3031,-0.0251 0.64396,-0.0456 1.0231,-0.0635 0.37865,-0.0159 0.77406,-0.0288 1.18675,-0.0375 0.4122,-0.008 0.82073,-0.0119 1.22505,-0.0119 0.58892,0 1.05195,0.1096 1.38865,0.32827 0.33667,0.21922 0.50501,0.69067 0.50501,1.41436 v 0.90934 h -1.36349 c -2.17212,0 -3.7506,0.34085 -4.73545,1.02259 -0.98486,0.68176 -1.47728,1.7636 -1.47728,3.24507 v 0.22812 c 0,0.82438 0.12228,1.51451 0.36603,2.06987 0.24385,0.55588 0.56847,1.00216 0.97227,1.33935 0.40433,0.33615 0.86266,0.57634 1.37659,0.71898 0.51341,0.14311 1.0483,0.21501 1.60366,0.21501 0.75778,0 1.41015,-0.10135 1.9571,-0.30311 0.54698,-0.20188 1.06458,-0.47984 1.55333,-0.8333 v 0.40381 c 0,0.13476 0.0503,0.25278 0.15162,0.35346 0.10134,0.10133 0.2187,0.15162 0.35347,0.15162 h 2.82868 c 0.13418,0 0.25223,-0.0504 0.35346,-0.15162 0.10134,-0.10063 0.15163,-0.2187 0.15163,-0.35346 z m -4.01541,6.11152 c -0.30312,0.15165 -0.62773,0.28212 -0.97227,0.39123 -0.34559,0.11018 -0.71163,0.16413 -1.09864,0.16413 -0.5391,0 -0.93869,-0.0756 -1.19987,-0.22708 -0.26115,-0.15162 -0.39122,-0.49664 -0.39122,-1.03469 v -0.2281 c 0,-0.30312 0.0334,-0.57215 0.10134,-0.80811 0.0672,-0.23548 0.18512,-0.42952 0.35345,-0.58055 0.16788,-0.15163 0.39541,-0.26536 0.68174,-0.34139 0.28635,-0.0756 0.64818,-0.11316 1.08607,-0.11316 h 1.43951 z m 19.47097,2.87904 v -8.41002 c 0,-0.7903 -0.0631,-1.53602 -0.1893,-2.23454 -0.12644,-0.69799 -0.35344,-1.30476 -0.68172,-1.81867 -0.32827,-0.51341 -0.78293,-0.92193 -1.36401,-1.22451 -0.5805,-0.3031 -1.3257,-0.45466 -2.23504,-0.45466 -0.80812,0 -1.52396,0.0976 -2.14643,0.29263 -0.62298,0.19503 -1.27955,0.53856 -1.96968,1.03048 v -0.61201 c 0,-0.13538 -0.051,-0.25433 -0.15163,-0.35606 -0.10133,-0.10164 -0.21922,-0.15323 -0.354,-0.15323 h -2.82818 c -0.13537,0 -0.25274,0.0504 -0.35344,0.15164 -0.10133,0.10133 -0.15161,0.21921 -0.15161,0.35345 v 13.4355 c 0,0.13478 0.0541,0.25695 0.16411,0.36605 0.10907,0.10962 0.23126,0.16412 0.36603,0.16412 h 3.05576 c 0.13479,0 0.25276,-0.0544 0.35346,-0.16353 0.10134,-0.10904 0.15162,-0.23072 0.15162,-0.3655 v -9.92821 c 0.43789,-0.23495 0.85007,-0.42792 1.23764,-0.57895 0.38701,-0.15162 0.76564,-0.22708 1.13639,-0.22708 0.38701,0 0.70271,0.0376 0.9471,0.11375 0.24385,0.0756 0.43315,0.20558 0.56792,0.39123 0.13479,0.18412 0.22762,0.42738 0.27795,0.72945 0.0503,0.30261 0.0761,0.6723 0.0761,1.10912 v 8.39066 c 0,0.13477 0.0504,0.25642 0.15162,0.36549 0.10062,0.10906 0.21816,0.16353 0.35346,0.16353 h 3.05577 c 0.13419,0 0.25642,-0.0546 0.36602,-0.16413 0.1096,-0.10906 0.16411,-0.23125 0.16411,-0.36604 z m 12.42548,-0.2019 v -2.24712 c 0,-0.13537 -0.0469,-0.24015 -0.13895,-0.31621 -0.0927,-0.0761 -0.20662,-0.11377 -0.34086,-0.11377 h -0.051 c -0.47144,0.0502 -0.9214,0.0928 -1.35089,0.12645 -0.4295,0.0334 -1.00635,0.0502 -1.73005,0.0502 -0.28631,0 -0.55535,-0.0462 -0.8081,-0.13893 -0.25279,-0.0925 -0.47145,-0.25226 -0.65659,-0.47987 -0.18572,-0.22706 -0.33246,-0.53017 -0.44207,-0.90879 -0.10961,-0.37914 -0.16411,-0.84642 -0.16411,-1.40176 v -2.12127 c 0,-0.55587 0.0545,-1.02313 0.16411,-1.40176 0.10962,-0.37915 0.25644,-0.68172 0.44207,-0.90933 0.18514,-0.22707 0.4038,-0.387 0.65659,-0.47982 0.25275,-0.0924 0.52179,-0.13895 0.8081,-0.13895 0.7237,0 1.30055,0.0178 1.73005,0.051 0.42949,0.0335 0.87945,0.0761 1.35089,0.12588 h 0.051 c 0.13417,0 0.24806,-0.0376 0.34086,-0.11319 0.0923,-0.076 0.13895,-0.18097 0.13895,-0.3157 v -2.24765 c 0,-0.18512 -0.0423,-0.31569 -0.12646,-0.39173 -0.0844,-0.0756 -0.21921,-0.13894 -0.40433,-0.18929 -0.35343,-0.0839 -0.8123,-0.16788 -1.37607,-0.25274 -0.56427,-0.0839 -1.22502,-0.12587 -1.9828,-0.12587 -1.78458,0 -3.21151,0.54697 -4.28027,1.64195 -1.06927,1.09392 -1.60364,2.67659 -1.60364,4.74751 v 2.12127 c 0,2.07088 0.53437,3.65358 1.60364,4.7475 1.06876,1.09499 2.49569,1.64194 4.28027,1.64194 0.75778,0 1.41853,-0.0423 1.9828,-0.12584 0.56377,-0.0851 1.02264,-0.16889 1.37607,-0.25329 0.18513,-0.0502 0.3199,-0.11317 0.40433,-0.1893 0.0839,-0.0755 0.12646,-0.20608 0.12646,-0.39119 z m 14.01653,-7.37433 c 0,-1.01051 -0.13953,-1.91934 -0.41795,-2.72745 -0.27845,-0.80812 -0.68331,-1.49406 -1.21454,-2.05834 -0.53125,-0.56374 -1.18937,-1.00164 -1.97338,-1.31313 -0.78451,-0.31097 -1.69174,-0.46725 -2.72065,-0.46725 -1.0289,0 -1.93562,0.15618 -2.72012,0.46725 -0.78453,0.31149 -1.44688,0.74939 -1.9865,1.31313 -0.54015,0.56428 -0.94919,1.25022 -1.22713,2.05834 -0.279,0.80811 -0.41796,1.71694 -0.41796,2.72745 v 1.76781 c 0,1.01003 0.13894,1.91936 0.41796,2.7275 0.27794,0.8081 0.68698,1.49406 1.22713,2.05832 0.53962,0.56427 1.20197,1.00163 1.9865,1.31313 0.7845,0.31099 1.69122,0.46725 2.72012,0.46725 1.02891,0 1.93614,-0.1562 2.72065,-0.46725 0.78401,-0.3115 1.44213,-0.74886 1.97338,-1.31313 0.53123,-0.56426 0.93609,-1.25022 1.21454,-2.05832 0.27846,-0.80814 0.41795,-1.71747 0.41795,-2.7275 z m -4.09148,1.76781 c 0,2.07091 -0.74517,3.10612 -2.23504,3.10612 -0.73681,0 -1.29741,-0.26064 -1.68232,-0.78296 -0.38545,-0.52177 -0.5779,-1.29635 -0.5779,-2.32316 v -1.76781 c 0,-1.02678 0.19245,-1.79713 0.5779,-2.31109 0.38491,-0.51339 0.94551,-0.77035 1.68232,-0.77035 1.48987,0 2.23504,1.02732 2.23504,3.08144 z m 19.11755,5.80842 v -8.41002 c 0,-0.7903 -0.064,-1.53602 -0.18929,-2.23454 -0.12644,-0.69799 -0.35396,-1.30476 -0.68279,-1.81867 -0.3283,-0.51341 -0.78242,-0.92193 -1.36296,-1.22451 -0.58105,-0.3031 -1.32624,-0.45466 -2.23504,-0.45466 -0.80812,0 -1.52395,0.0976 -2.14697,0.29263 -0.62299,0.19503 -1.27956,0.53856 -1.96968,1.03048 v -0.61201 c 0,-0.13538 -0.0504,-0.25433 -0.15202,-0.35606 -0.10012,-0.10164 -0.21868,-0.15323 -0.35293,-0.15323 h -2.82871 c -0.13478,0 -0.25222,0.0504 -0.35344,0.15164 -0.10063,0.10133 -0.15164,0.21921 -0.15164,0.35345 v 13.4355 c 0,0.13478 0.0545,0.25695 0.16411,0.36605 0.10962,0.10962 0.23129,0.16412 0.36658,0.16412 h 3.05576 c 0.13418,0 0.25223,-0.0544 0.35344,-0.16353 0.10073,-0.10904 0.15164,-0.23072 0.15164,-0.3655 v -9.92821 c 0.43737,-0.23495 0.85007,-0.42792 1.2371,-0.57895 0.38753,-0.15162 0.76616,-0.22708 1.13692,-0.22708 0.38702,0 0.70271,0.0376 0.94656,0.11375 0.24387,0.0756 0.43371,0.20558 0.56847,0.39123 0.13479,0.18412 0.22708,0.42738 0.27796,0.72945 0.0503,0.30261 0.0756,0.6723 0.0756,1.10912 v 8.39066 c 0,0.13477 0.0504,0.25642 0.15164,0.36549 0.10134,0.10906 0.21867,0.16353 0.35345,0.16353 h 3.05578 c 0.13477,0 0.25694,-0.0546 0.36655,-0.16413 0.10905,-0.10906 0.16411,-0.23125 0.16411,-0.36604 z m 11.01111,0.0567 v -1.95449 c 0,-0.28371 -0.17678,-0.42582 -0.53016,-0.42582 h -1.23816 c -0.38702,0 -0.62248,-0.0715 -0.70638,-0.21447 -0.0844,-0.14271 -0.12646,-0.46727 -0.12646,-0.97227 v -7.34915 h 2.07092 c 0.13419,0 0.25224,-0.051 0.35346,-0.15262 0.10133,-0.10164 0.15162,-0.22023 0.15162,-0.35657 v -2.06254 c 0,-0.13537 -0.0504,-0.25485 -0.15162,-0.35661 -0.10134,-0.10163 -0.21921,-0.1526 -0.35346,-0.1526 h -2.07092 v -2.67716 c 0,-0.13418 -0.042,-0.23964 -0.12526,-0.3157 -0.0839,-0.0755 -0.19305,-0.11277 -0.32672,-0.11277 h -0.0748 l -3.06205,0.52965 c -0.13417,0.0342 -0.25226,0.0928 -0.35188,0.17681 -0.10012,0.0844 -0.15044,0.19344 -0.15044,0.32828 v 2.07091 h -2.02003 c -0.13538,0 -0.25698,0.0552 -0.36657,0.16411 -0.1096,0.10961 -0.16411,0.2318 -0.16411,0.36606 v 1.6671 c 0,0.13478 0.0545,0.24861 0.16411,0.34088 0.10962,0.0927 0.23127,0.15577 0.36657,0.18927 l 2.02003,0.32882 v 7.32345 c 0,0.89307 0.0923,1.62042 0.27587,2.18418 0.18412,0.56426 0.45203,1.00634 0.80287,1.32624 0.35134,0.31988 0.79133,0.53438 1.31837,0.64398 0.52702,0.10906 1.1338,0.16411 1.82076,0.16411 0.3697,0 0.69854,-0.0159 0.98485,-0.0504 0.2858,-0.0334 0.62249,-0.0833 1.01,-0.15044 0.31992,-0.0494 0.47987,-0.2166 0.47987,-0.5003 z m 13.48532,-9.0472 c 0,-0.92558 -0.13853,-1.71325 -0.41688,-2.36143 -0.27744,-0.64765 -0.66865,-1.17836 -1.17365,-1.59107 -0.50502,-0.4122 -1.12382,-0.71477 -1.85644,-0.90881 -0.73208,-0.19344 -1.55278,-0.29051 -2.46212,-0.29051 -0.84273,0 -1.66291,0.0593 -2.46212,0.17718 -0.80026,0.11753 -1.43586,0.23547 -1.90678,0.35295 -0.32092,0.0851 -0.47983,0.26954 -0.47983,0.55535 v 2.04573 c 0,0.16888 0.0414,0.28687 0.12587,0.35347 0.0844,0.0676 0.19343,0.10164 0.32827,0.10164 h 0.12645 c 0.20241,-0.0178 0.45466,-0.0382 0.75777,-0.0635 0.30312,-0.0251 0.64399,-0.0456 1.02263,-0.0634 0.37915,-0.0159 0.77455,-0.0288 1.18725,-0.0376 0.41218,-0.008 0.82072,-0.0119 1.22451,-0.0119 0.58945,0 1.0525,0.10961 1.38919,0.32829 0.33667,0.21921 0.50501,0.69066 0.50501,1.41434 v 0.90933 h -1.36348 c -2.17267,0 -3.75063,0.34088 -4.73546,1.02264 -0.98484,0.68172 -1.47729,1.76358 -1.47729,3.24505 v 0.22812 c 0,0.82438 0.12169,1.51451 0.36604,2.06987 0.24334,0.55587 0.56847,1.00215 0.97227,1.33934 0.40431,0.33619 0.86267,0.57634 1.37659,0.71898 0.5134,0.14311 1.04779,0.21502 1.60366,0.21502 0.75778,0 1.40963,-0.10133 1.95711,-0.30312 0.54696,-0.2019 1.06404,-0.47984 1.55333,-0.83331 v 0.40382 c 0,0.1348 0.0503,0.25277 0.15163,0.35345 0.10062,0.10134 0.21866,0.15162 0.35345,0.15162 h 2.82868 c 0.13418,0 0.25225,-0.0504 0.35346,-0.15162 0.10061,-0.10062 0.15103,-0.21865 0.15103,-0.35345 z m -4.01491,6.11154 c -0.30311,0.15163 -0.62773,0.28213 -0.97227,0.39122 -0.34612,0.11016 -0.71161,0.16411 -1.09863,0.16411 -0.53912,0 -0.93872,-0.0756 -1.19987,-0.22705 -0.26115,-0.15164 -0.39122,-0.49664 -0.39122,-1.03469 v -0.22811 c 0,-0.30312 0.0334,-0.57214 0.10133,-0.80813 0.0666,-0.23546 0.18454,-0.4295 0.35346,-0.58053 0.16789,-0.15163 0.39542,-0.26536 0.68175,-0.34138 0.28631,-0.0755 0.64817,-0.11317 1.08606,-0.11317 h 1.4395 z m 16.44038,2.67711 v -2.24711 c 0,-0.13537 -0.0468,-0.24016 -0.13894,-0.3162 -0.0927,-0.076 -0.2061,-0.11379 -0.34088,-0.11379 h -0.0503 c -0.47145,0.0502 -0.92191,0.0928 -1.35142,0.12647 -0.42899,0.0334 -1.00583,0.0503 -1.72952,0.0503 -0.28686,0 -0.55641,-0.0462 -0.80811,-0.13895 -0.2528,-0.0924 -0.47198,-0.25226 -0.6571,-0.47985 -0.18512,-0.22706 -0.33248,-0.53017 -0.44157,-0.90878 -0.11016,-0.37917 -0.16411,-0.84644 -0.16411,-1.40179 v -2.12124 c 0,-0.55588 0.0541,-1.02313 0.16411,-1.40175 0.10906,-0.37918 0.25645,-0.68177 0.44157,-0.90934 0.18512,-0.22708 0.4043,-0.38702 0.6571,-0.47984 0.2517,-0.0925 0.52125,-0.13895 0.80811,-0.13895 0.72369,0 1.30053,0.0178 1.72952,0.051 0.42951,0.0334 0.87997,0.0761 1.35142,0.12587 h 0.0503 c 0.13478,0 0.24807,-0.0375 0.34088,-0.11319 0.0923,-0.0761 0.13894,-0.18094 0.13894,-0.31568 v -2.24764 c 0,-0.18513 -0.042,-0.31572 -0.12646,-0.39174 -0.0851,-0.0756 -0.21867,-0.13895 -0.40379,-0.18929 -0.35346,-0.0839 -0.81284,-0.16788 -1.37659,-0.25275 -0.56426,-0.0838 -1.2245,-0.12585 -1.98227,-0.12585 -1.78564,0 -3.21152,0.54696 -4.28081,1.64193 -1.06927,1.09393 -1.60366,2.6766 -1.60366,4.74752 v 2.12125 c 0,2.07091 0.53439,3.65358 1.60366,4.74753 1.06929,1.09497 2.49517,1.64193 4.28081,1.64193 0.75777,0 1.41801,-0.0424 1.98227,-0.12586 0.56375,-0.0851 1.02313,-0.16885 1.37659,-0.25327 0.18512,-0.0504 0.31884,-0.11318 0.40379,-0.1893 0.0844,-0.0756 0.12646,-0.20608 0.12646,-0.39121 z m 10.88476,0.25855 v -1.95449 c 0,-0.28371 -0.17679,-0.42582 -0.53019,-0.42582 h -1.23762 c -0.38754,0 -0.62299,-0.0715 -0.70689,-0.21447 -0.0844,-0.14271 -0.12646,-0.46727 -0.12646,-0.97227 v -7.34915 h 2.07092 c 0.13418,0 0.25221,-0.051 0.35345,-0.15262 0.10063,-0.10164 0.15162,-0.22023 0.15162,-0.35657 v -2.06254 c 0,-0.13537 -0.051,-0.25485 -0.15162,-0.35661 -0.10133,-0.10163 -0.21922,-0.1526 -0.35345,-0.1526 h -2.07092 v -2.67716 c 0,-0.13418 -0.042,-0.23964 -0.12645,-0.3157 -0.0828,-0.0755 -0.19188,-0.11277 -0.32568,-0.11277 h -0.0756 l -3.06206,0.52965 c -0.13418,0.0342 -0.25171,0.0928 -0.35134,0.17681 -0.10012,0.0844 -0.15044,0.19344 -0.15044,0.32828 v 2.07091 h -2.02006 c -0.13538,0 -0.25696,0.0552 -0.36656,0.16411 -0.10962,0.10961 -0.16412,0.2318 -0.16412,0.36606 v 1.6671 c 0,0.13478 0.0545,0.24861 0.16412,0.34088 0.1096,0.0927 0.23126,0.15577 0.36656,0.18927 l 2.02006,0.32882 v 7.32345 c 0,0.89307 0.0923,1.62042 0.27584,2.18418 0.18412,0.56426 0.45204,1.00634 0.80339,1.32624 0.35084,0.31988 0.7903,0.53438 1.31786,0.64398 0.52702,0.10906 1.13379,0.16411 1.82076,0.16411 0.36971,0 0.69799,-0.0159 0.98485,-0.0504 0.28582,-0.0334 0.62247,-0.0833 1.01003,-0.15044 0.31937,-0.0494 0.47983,-0.2166 0.47983,-0.5003 z"
       id="Fill-8"
       inkscape:connector-curvature="0"
       style="fill:#005697;fill-rule:evenodd;stroke:none;stroke-width:0.524415" />
  </g>
</svg>
